<?xml version="1.0" standalone="no"?>
<!DOCTYPE svg PUBLIC "-//W3C//DTD SVG 20010904//EN"
 "http://www.w3.org/TR/2001/REC-SVG-20010904/DTD/svg10.dtd">
<svg version="1.0" xmlns="http://www.w3.org/2000/svg"
 width="500.000000pt" height="500.000000pt" viewBox="0 0 500.000000 500.000000"
 preserveAspectRatio="xMidYMid meet">
<metadata>
Created by potrace 1.14, written by Peter Selinger 2001-2017
</metadata>
<g transform="translate(0.000000,500.000000) scale(0.100000,-0.100000)"
fill="#000000" stroke="none">
<path d="M2415 4970 c-68 -9 -149 -39 -215 -79 -25 -15 -52 -31 -60 -35 -8 -4
-24 -12 -35 -19 -11 -7 -54 -32 -95 -55 -41 -23 -93 -54 -115 -67 -22 -14 -53
-32 -70 -40 -16 -9 -43 -24 -60 -35 -16 -11 -39 -24 -51 -29 -35 -15 -128 -74
-136 -85 -4 -6 -8 -8 -8 -4 0 3 -97 -50 -215 -118 -118 -68 -219 -124 -225
-124 -5 0 -10 -4 -10 -10 0 -5 -5 -10 -10 -10 -6 0 -35 -15 -65 -34 -29 -19
-56 -32 -59 -29 -3 4 -6 1 -6 -5 0 -7 -7 -12 -15 -12 -8 0 -15 -4 -15 -8 0 -4
-12 -13 -27 -20 -16 -6 -50 -25 -78 -42 -74 -44 -119 -68 -129 -68 -5 0 -13
-7 -18 -16 -5 -9 -14 -16 -19 -16 -14 0 -152 -81 -161 -95 -4 -5 -8 -6 -8 -2
0 13 -117 -110 -134 -141 -42 -76 -75 -155 -85 -204 -9 -42 -15 -425 -10 -598
0 -8 0 -62 0 -120 -1 -58 -1 -112 0 -120 0 -8 0 -170 0 -360 0 -190 0 -352 0
-360 0 -8 0 -62 0 -120 -1 -58 -1 -114 -1 -125 1 -40 1 -120 1 -135 -3 -65 -1
-159 3 -176 27 -127 87 -237 174 -322 39 -38 251 -172 272 -172 5 0 10 -3 12
-7 2 -5 21 -17 43 -28 22 -11 42 -22 45 -25 3 -3 25 -16 50 -29 25 -13 53 -31
63 -39 9 -8 17 -11 17 -6 0 5 4 4 8 -2 4 -6 27 -21 52 -35 25 -13 47 -26 50
-29 3 -3 23 -15 45 -27 22 -11 54 -29 72 -40 104 -61 126 -73 134 -73 5 0 9
-5 9 -12 0 -6 3 -9 6 -5 4 3 25 -6 48 -22 22 -15 73 -45 111 -66 39 -21 87
-49 107 -62 21 -12 42 -23 48 -23 5 0 10 -4 10 -8 0 -5 16 -14 35 -22 19 -8
35 -18 35 -22 0 -5 4 -7 9 -4 5 4 11 2 13 -2 1 -5 39 -29 83 -53 118 -67 130
-73 135 -80 6 -6 43 -21 49 -19 2 1 7 -2 10 -8 3 -5 38 -27 76 -49 212 -122
254 -136 403 -136 59 0 108 5 114 11 6 6 16 8 24 5 13 -5 141 54 235 109 31
18 88 51 125 72 38 21 77 46 87 54 9 8 17 12 17 8 0 -4 16 5 35 20 19 14 35
23 35 20 0 -4 20 7 44 24 25 16 49 30 55 30 6 0 11 5 11 10 0 6 9 10 20 10 11
0 20 3 20 8 0 4 21 18 48 32 26 13 50 29 54 35 4 5 8 6 8 1 0 -5 8 -2 18 6 9
8 37 26 62 39 25 13 47 26 50 29 3 3 19 12 35 20 17 8 36 21 43 28 7 6 18 12
23 12 5 0 33 16 63 35 30 19 60 35 66 35 5 0 10 4 10 10 0 5 3 9 8 8 4 -2 50
23 102 54 52 30 115 67 140 81 25 14 112 64 193 111 82 47 151 86 154 86 3 0
21 11 39 25 18 14 36 25 41 25 20 0 143 145 171 202 71 144 67 58 67 1218 l0
1045 -24 70 c-67 196 -138 268 -433 434 -21 12 -55 31 -75 43 -21 12 -49 28
-63 35 -14 8 -38 23 -55 33 -16 10 -50 29 -75 41 -25 13 -47 25 -50 28 -9 11
-240 141 -250 141 -6 0 -10 4 -10 9 0 5 -8 11 -17 14 -17 6 -41 19 -153 86
-25 14 -57 33 -72 40 -16 8 -28 18 -28 23 0 4 -8 8 -18 8 -10 0 -23 5 -29 11
-12 12 -36 26 -88 53 -16 9 -48 27 -70 41 -22 14 -48 28 -57 32 -10 3 -18 9
-18 14 0 5 -3 8 -7 7 -5 -2 -52 23 -105 55 -53 31 -100 57 -103 57 -3 0 -11 5
-18 10 -22 20 -126 78 -130 74 -2 -3 -10 2 -17 11 -7 8 -21 15 -31 15 -10 0
-20 4 -23 8 -15 25 -195 44 -291 32z m210 -711 c22 -7 62 -26 88 -41 26 -15
52 -28 57 -28 6 0 10 -3 10 -8 0 -4 15 -13 33 -21 17 -8 34 -17 37 -21 3 -3
21 -14 40 -24 52 -26 94 -50 100 -57 3 -4 24 -16 47 -28 23 -11 44 -25 47 -30
4 -5 20 -12 36 -16 17 -4 30 -10 30 -15 0 -4 15 -15 33 -24 17 -9 39 -21 47
-26 41 -27 242 -140 247 -140 4 0 14 -6 22 -14 9 -7 41 -27 71 -43 89 -49 134
-75 153 -91 9 -8 17 -12 17 -8 0 4 13 -2 29 -13 16 -12 34 -21 40 -21 6 0 11
-4 11 -8 0 -5 16 -14 35 -22 19 -8 35 -17 35 -21 0 -4 8 -10 18 -13 63 -21
158 -159 180 -262 4 -22 7 -374 7 -784 -2 -686 -3 -749 -20 -795 -9 -27 -26
-62 -36 -77 -11 -14 -19 -29 -19 -33 0 -13 -113 -115 -127 -115 -7 0 -13 -5
-13 -12 0 -6 -3 -8 -6 -5 -4 4 -19 -2 -33 -12 -15 -11 -54 -34 -86 -52 -33
-18 -62 -35 -65 -38 -3 -4 -26 -18 -52 -31 -26 -14 -99 -55 -164 -92 -64 -38
-121 -68 -125 -68 -5 0 -9 -4 -9 -9 0 -5 -8 -11 -17 -14 -10 -4 -38 -18 -63
-33 -102 -60 -228 -133 -265 -154 -39 -22 -152 -88 -265 -155 -82 -49 -143
-64 -246 -60 -94 3 -136 14 -196 52 -21 13 -40 23 -42 23 -3 0 -25 14 -49 30
-25 17 -50 30 -56 30 -6 0 -11 5 -11 12 0 6 -3 8 -6 5 -4 -4 -19 2 -34 13 -16
11 -32 20 -37 20 -5 0 -18 8 -29 17 -10 10 -35 26 -54 35 -19 10 -53 29 -75
42 -22 14 -62 37 -90 51 -27 15 -57 33 -65 40 -8 8 -22 15 -30 17 -8 2 -17 6
-20 9 -7 9 -109 68 -142 82 -16 6 -28 15 -28 19 0 4 -7 8 -15 8 -8 0 -15 3
-15 8 0 4 -15 13 -32 21 -18 8 -35 17 -38 21 -3 3 -22 14 -42 23 -20 10 -40
22 -43 27 -3 6 -13 10 -22 10 -9 0 -24 9 -34 21 -9 11 -20 19 -24 18 -10 -2
-75 35 -75 43 0 5 -9 8 -20 8 -11 0 -20 3 -20 8 0 4 -12 13 -28 19 -38 18
-103 79 -141 136 -18 26 -29 47 -25 47 3 0 2 6 -3 13 -35 42 -36 84 -37 822
-1 402 2 750 7 775 5 25 9 50 11 55 4 23 48 103 66 123 12 12 18 22 15 22 -13
0 95 86 132 105 21 11 54 29 73 41 19 11 38 21 41 20 4 -1 15 6 25 15 11 9 26
19 34 23 8 3 31 16 50 28 19 11 60 34 90 51 30 17 57 33 60 36 3 3 23 16 45
27 22 12 107 61 189 108 82 47 152 86 157 86 5 0 9 4 9 9 0 5 12 14 28 20 33
13 92 47 106 61 5 5 18 10 28 10 10 0 18 4 18 9 0 5 24 21 53 36 28 15 55 33
59 39 4 6 8 7 8 3 0 -5 13 1 30 13 38 27 147 77 180 82 47 7 165 0 205 -13z"/>
<path d="M2162 3333 c-17 -7 -33 -17 -37 -23 -7 -12 -114 -316 -120 -340 -2
-8 -4 -15 -5 -15 -1 0 -3 -7 -5 -15 -2 -8 -24 -73 -50 -145 -25 -71 -48 -137
-50 -145 -5 -20 -65 -199 -76 -225 -15 -39 -51 -140 -59 -170 -5 -16 -20 -64
-35 -105 -15 -41 -28 -82 -30 -90 -2 -8 -18 -55 -36 -104 -31 -88 -31 -88 -11
-108 18 -18 33 -20 198 -20 304 1 280 -1 310 30 22 22 53 89 67 147 2 6 8 18
13 29 10 17 27 18 255 18 134 0 253 -1 264 -1 15 -1 24 -15 38 -59 32 -97 55
-139 87 -152 32 -13 431 -17 470 -5 32 10 32 39 -1 136 -17 50 -32 97 -34 103
-1 6 -7 24 -13 39 -7 16 -12 34 -12 42 0 8 -4 17 -10 20 -5 3 -10 12 -10 20 0
8 -5 26 -12 42 -6 15 -12 30 -12 33 -1 3 -5 11 -9 18 -5 6 -6 12 -3 12 2 0
-14 51 -36 113 -22 61 -42 121 -45 132 -3 11 -7 27 -10 35 -11 28 -94 265 -97
275 -1 6 -6 24 -11 40 -4 17 -10 34 -13 39 -5 9 -120 342 -125 361 -1 5 -13
18 -26 29 -23 19 -41 20 -351 21 -240 0 -335 -3 -358 -12z m370 -485 c2 -13 5
-25 8 -28 5 -5 49 -124 54 -145 10 -44 42 -131 51 -137 5 -4 7 -8 3 -8 -4 0
-3 -11 2 -24 6 -17 5 -25 -3 -28 -10 -3 -241 -2 -285 1 -8 1 -10 6 -5 14 4 6
8 14 8 17 1 10 66 205 75 225 7 16 19 50 25 75 1 3 4 12 8 20 3 8 11 32 17 53
l12 39 13 -26 c8 -14 15 -36 17 -48z"/>
</g>
</svg>
